<svg height="512pt" viewBox="0 0 512 512" width="512pt" xmlns="http://www.w3.org/2000/svg"><path d="m466 0h-451c-8.402344 0-15 6.597656-15 15v421c0 8.398438 6.597656 15 15 15h451c8.402344 0 15-6.601562 15-15v-421c0-8.402344-6.597656-15-15-15zm0 0" fill="#f2f2fc"/><path d="m481 15v421c0 8.398438-6.597656 15-15 15h-225v-451h225c8.402344 0 15 6.597656 15 15zm0 0" fill="#d8d8fc"/><path d="m421 75v228.398438l-180 19.199218-131.398438 13.800782-48.601562-30.296876v-231.101562c0-8.402344 6.597656-15 15-15h330c8.402344 0 15 6.597656 15 15zm0 0" fill="#4bb9ec"/><path d="m421 75v228.398438l-180 19.199218v-262.597656h165c8.402344 0 15 6.597656 15 15zm0 0" fill="#0095ff"/><path d="m166 181c-24.8125 0-45-20.1875-45-45s20.1875-46 45-46 45 21.1875 45 46-20.1875 45-45 45zm0 0" fill="#ffda2d"/><path d="m421 303.398438v72.601562c0 8.398438-6.597656 15-15 15h-330c-8.402344 0-15-6.601562-15-15v-69.902344l78.601562-89.699218c5.699219-6.898438 17.097657-6.898438 22.796876 0l63 75.300781 15.601562-20.699219 63-84c5.699219-7.5 18.300781-7.5 24 0zm0 0" fill="#575f64"/><path d="m421 303.398438v72.601562c0 8.398438-6.597656 15-15 15h-165v-120l63-84c5.699219-7.5 18.300781-7.5 24 0zm0 0" fill="#32393f"/><path d="m406 512c-57.890625 0-105-48.109375-105-106s47.109375-105 105-105 106 47.109375 106 105-48.109375 106-106 106zm0 0" fill="#6b0"/><path d="m436 391h-15v-15c0-8.289062-6.710938-15-15-15s-15 6.710938-15 15v15h-15c-8.289062 0-15 6.710938-15 15s6.710938 15 15 15h15v15c0 8.289062 6.710938 15 15 15s15-6.710938 15-15v-15h15c8.289062 0 15-6.710938 15-15s-6.710938-15-15-15zm0 0" fill="#d8d8fc"/></svg>