<?xml version="1.0" encoding="iso-8859-1"?>
<!-- Generator: Adobe Illustrator 22.0.1, SVG Export Plug-In . SVG Version: 6.00 Build 0)  -->
<svg xmlns="http://www.w3.org/2000/svg" xmlns:xlink="http://www.w3.org/1999/xlink" version="1.1" id="Layer_1" x="0px" y="0px" viewBox="0 0 64 64" style="enable-background:new 0 0 64 64;" xml:space="preserve" width="512" height="512">
<style type="text/css">
	.st0{fill:#52B8D9;}
	.st1{fill:#63312D;}
	.st2{fill:#82D9FF;}
	.st3{fill:#CAF4FF;}
	.st4{fill:#F8F3F3;}
	.st5{fill:#F9DD9D;}
	.st6{fill:#FFEECF;}
	.st7{fill:#F9A287;}
	.st8{fill:#FFC8BB;}
	.st9{fill:#DB785A;}
	.st10{fill:#D1D1D1;}
	.st11{fill:#BCBCBC;}
	.st12{fill:#EFC36A;}
	.st13{fill:#84DBFF;}
	.st14{fill:#E1DDDD;}
</style>
<g>
	<path class="st5" d="M50.551,40.104c-0.072-1.383-1.314-2.421-2.699-2.421l-6.337,0h-4.96c1.635-2.82,3.71-5.719,4.472-8.906   c0.319-1.334-0.141-2.775-1.289-3.525c-1.523-0.996-3.498-0.517-4.421,0.961l-0.46,0.737c-1.311,2.099-3.033,3.911-5.064,5.326   l-6.303,4.391v19.806l2.28,0.827c1.549,0.562,3.185,0.849,4.833,0.849h9.977l4.505,0c1.385,0,2.627-1.037,2.699-2.421   c0.077-1.475-1.096-2.696-2.555-2.696h0.769c1.385,0,2.627-1.037,2.699-2.421c0.077-1.475-1.096-2.696-2.555-2.696h0.769   c1.385,0,2.627-1.037,2.699-2.421c0.077-1.475-1.096-2.696-2.555-2.696h0.94C49.454,42.8,50.628,41.58,50.551,40.104z"/>
	<path class="st6" d="M25.026,38.205l6.303-4.391c2.031-1.415,3.753-3.227,5.064-5.326l0.46-0.737   c0.835-1.338,2.53-1.844,3.974-1.192c-0.232-0.52-0.592-0.98-1.09-1.305c-1.523-0.996-3.498-0.517-4.421,0.961l-0.46,0.737   c-1.31,2.099-3.033,3.911-5.064,5.326l-6.303,4.391v19.806l1.537,0.557V38.205z"/>
	<polygon class="st12" points="23.49,36.668 23.49,56.474 25.026,57.031 25.026,35.597  "/>
	<path class="st12" d="M54.009,40.242c0-1.413-1.145-2.558-2.558-2.558h-3.455c1.413,0,2.558,1.145,2.558,2.558   S49.409,42.8,47.996,42.8h-0.348h-0.592c1.413,0,2.558,1.145,2.558,2.558c0,1.413-1.145,2.558-2.558,2.558h-0.348h-0.566   c1.413,0,2.558,1.145,2.558,2.558c0,1.413-1.145,2.558-2.558,2.558h-0.348h-0.566c1.413,0,2.558,1.145,2.558,2.558   c0,1.413-1.145,2.558-2.558,2.558h3.455c1.413,0,2.558-1.145,2.558-2.558c0-1.413-1.145-2.558-2.558-2.558h0.914   c1.413,0,2.558-1.145,2.558-2.558c0-1.413-1.145-2.558-2.558-2.558h0.914c1.413,0,2.558-1.145,2.558-2.558   c0-1.413-1.145-2.558-2.558-2.558h0.94C52.863,42.8,54.009,41.655,54.009,40.242z"/>
	<path class="st1" d="M48.683,58.65h-3.455c-0.276,0-0.5-0.224-0.5-0.5s0.224-0.5,0.5-0.5c1.135,0,2.059-0.924,2.059-2.059   s-0.924-2.059-2.059-2.059c-0.276,0-0.5-0.224-0.5-0.5s0.224-0.5,0.5-0.5h0.915c1.135,0,2.058-0.924,2.058-2.059   s-0.923-2.058-2.058-2.058c-0.276,0-0.5-0.224-0.5-0.5s0.224-0.5,0.5-0.5h0.914c1.135,0,2.058-0.924,2.058-2.059   S48.191,43.3,47.057,43.3c-0.276,0-0.5-0.224-0.5-0.5s0.224-0.5,0.5-0.5h0.939c1.135,0,2.058-0.923,2.058-2.058   s-0.923-2.059-2.058-2.059c-0.276,0-0.5-0.224-0.5-0.5s0.224-0.5,0.5-0.5h3.454c1.687,0,3.059,1.372,3.059,3.059   c0,1.294-0.809,2.403-1.947,2.849c0.618,0.561,1.008,1.369,1.008,2.268c0,1.288-0.8,2.393-1.93,2.843   c0.623,0.56,1.016,1.372,1.016,2.273c0,1.288-0.8,2.393-1.93,2.843c0.623,0.561,1.016,1.372,1.016,2.274   C51.741,57.278,50.369,58.65,48.683,58.65z M47.487,57.65h1.195c1.135,0,2.059-0.924,2.059-2.059s-0.924-2.059-2.059-2.059   c-0.276,0-0.5-0.224-0.5-0.5s0.224-0.5,0.5-0.5h0.914c1.135,0,2.059-0.924,2.059-2.059s-0.924-2.058-2.059-2.058   c-0.276,0-0.5-0.224-0.5-0.5s0.224-0.5,0.5-0.5h0.914c1.135,0,2.059-0.924,2.059-2.059S51.646,43.3,50.511,43.3   c-0.276,0-0.5-0.224-0.5-0.5s0.224-0.5,0.5-0.5h0.939c1.135,0,2.059-0.923,2.059-2.058s-0.924-2.059-2.059-2.059h-1.194   c0.495,0.544,0.798,1.267,0.798,2.059c0,1.294-0.809,2.403-1.947,2.849c0.619,0.561,1.008,1.369,1.008,2.268   c0,1.288-0.8,2.393-1.929,2.843c0.622,0.561,1.015,1.372,1.015,2.273c0,1.288-0.801,2.393-1.93,2.843   c0.623,0.561,1.016,1.372,1.016,2.274C48.286,56.384,47.983,57.106,47.487,57.65z"/>
	<path class="st1" d="M47.996,43.3h-3.803v-1h3.803c1.135,0,2.058-0.923,2.058-2.058s-0.923-2.059-2.058-2.059H36.554   c-0.179,0-0.344-0.096-0.434-0.25c-0.089-0.155-0.089-0.347,0.001-0.501c0.342-0.59,0.703-1.183,1.068-1.781   c1.398-2.298,2.846-4.673,3.398-7.199c0.273-1.246-0.382-2.513-1.557-3.013c-1.213-0.514-2.595-0.076-3.291,1.039l-0.46,0.737   c-1.354,2.17-3.105,4.011-5.202,5.472l-6.303,4.391l-0.572-0.82l6.303-4.391c1.986-1.384,3.644-3.127,4.927-5.181l0.46-0.737   c0.958-1.535,2.864-2.138,4.529-1.43c1.618,0.688,2.52,2.432,2.143,4.147c-0.589,2.688-2.079,5.137-3.521,7.504   c-0.206,0.34-0.412,0.677-0.613,1.013h10.566c1.686,0,3.058,1.372,3.058,3.059C51.054,41.928,49.682,43.3,47.996,43.3z"/>
	<path class="st1" d="M47.057,48.417h-3.803v-1h3.803c1.135,0,2.058-0.924,2.058-2.059S48.191,43.3,47.057,43.3h-3.803v-1h3.803   c1.686,0,3.058,1.372,3.058,3.059S48.742,48.417,47.057,48.417z"/>
	<path class="st1" d="M46.143,53.533H42.34v-1h3.803c1.135,0,2.058-0.924,2.058-2.059s-0.923-2.058-2.058-2.058H42.34v-1h3.803   c1.686,0,3.058,1.372,3.058,3.058C49.2,52.161,47.828,53.533,46.143,53.533z"/>
	<path class="st1" d="M45.229,58.65h-14.81c-1.589,0-3.152-0.274-4.648-0.817l-2.452-0.89l0.342-0.939l2.452,0.89   c1.385,0.502,2.834,0.757,4.307,0.757h14.81c1.135,0,2.058-0.924,2.058-2.059s-0.923-2.059-2.058-2.059h-3.803v-1h3.803   c1.686,0,3.058,1.372,3.058,3.059S46.914,58.65,45.229,58.65z"/>
	<rect x="14.755" y="36.16" class="st7" width="8.735" height="21.533"/>
	<polygon class="st8" points="16.754,38.16 23.49,38.16 23.49,36.16 14.754,36.16 14.754,57.693 16.754,57.693  "/>
	<path class="st1" d="M23.489,58.193h-8.734c-0.276,0-0.5-0.224-0.5-0.5V36.16c0-0.276,0.224-0.5,0.5-0.5h8.734   c0.276,0,0.5,0.224,0.5,0.5v21.533C23.989,57.97,23.766,58.193,23.489,58.193z M15.255,57.193h7.734V36.66h-7.734V57.193z"/>
	<rect x="17.941" y="38.915" class="st4" width="2.362" height="2.362"/>
	<rect x="47.437" y="42.3" class="st1" width="3.073" height="1"/>
	<rect x="47.437" y="47.417" class="st1" width="3.073" height="1"/>
	<rect x="46.668" y="52.533" class="st1" width="2.74" height="1"/>
	<rect x="9.609" y="37.312" class="st7" width="5.146" height="19.228"/>
	<rect x="9.609" y="37.312" class="st8" width="5.146" height="1.875"/>
	<path class="st1" d="M14.755,57.04H9.608v-1h4.646V37.813H9.608v-1h5.146c0.276,0,0.5,0.224,0.5,0.5V56.54   C15.255,56.816,15.031,57.04,14.755,57.04z"/>
	<rect x="42.34" y="24.98" class="st14" width="4" height="12.704"/>
	<path class="st1" d="M46.34,38.184h-4c-0.276,0-0.5-0.224-0.5-0.5V24.979c0-0.276,0.224-0.5,0.5-0.5h4c0.276,0,0.5,0.224,0.5,0.5   v12.704C46.84,37.96,46.616,38.184,46.34,38.184z M42.84,37.184h3V25.479h-3V37.184z"/>
	<rect x="36.554" y="24.98" class="st4" width="5.786" height="12.704"/>
	<path class="st1" d="M42.34,38.184h-5.786c-0.276,0-0.5-0.224-0.5-0.5V24.979c0-0.276,0.224-0.5,0.5-0.5h5.786   c0.276,0,0.5,0.224,0.5,0.5v12.704C42.84,37.96,42.616,38.184,42.34,38.184z M37.054,37.184h4.786V25.479h-4.786V37.184z"/>
	<rect x="42.34" y="58.15" class="st14" width="4" height="2.742"/>
	<path class="st1" d="M46.34,61.392h-4c-0.276,0-0.5-0.224-0.5-0.5V58.15c0-0.276,0.224-0.5,0.5-0.5h4c0.276,0,0.5,0.224,0.5,0.5   v2.741C46.84,61.168,46.616,61.392,46.34,61.392z M42.84,60.392h3V58.65h-3V60.392z"/>
	<rect x="36.554" y="58.15" class="st4" width="5.786" height="2.742"/>
	<path class="st1" d="M42.34,61.392h-5.786c-0.276,0-0.5-0.224-0.5-0.5V58.15c0-0.276,0.224-0.5,0.5-0.5h5.786   c0.276,0,0.5,0.224,0.5,0.5v2.741C42.84,61.168,42.616,61.392,42.34,61.392z M37.054,60.392h4.786V58.65h-4.786V60.392z"/>
	<path class="st9" d="M43.447,31.048c7.715,0,13.97-6.255,13.97-13.97s-6.255-13.97-13.97-13.97h-4v27.94H43.447z"/>
	<path class="st1" d="M43.447,31.548h-4c-0.276,0-0.5-0.224-0.5-0.5V3.108c0-0.276,0.224-0.5,0.5-0.5h4   c7.979,0,14.47,6.491,14.47,14.47S51.426,31.548,43.447,31.548z M39.947,30.548h3.5c7.427,0,13.47-6.043,13.47-13.47   s-6.043-13.47-13.47-13.47h-3.5V30.548z"/>
	<circle class="st7" cx="39.447" cy="17.078" r="13.97"/>
	<path class="st8" d="M27.477,17.078c0-7.378,5.723-13.405,12.97-13.919c-0.332-0.024-0.662-0.051-1-0.051   c-7.715,0-13.97,6.255-13.97,13.97c0,7.715,6.254,13.97,13.97,13.97c0.338,0,0.668-0.027,1-0.051   C33.2,30.483,27.477,24.456,27.477,17.078z"/>
	<path class="st1" d="M39.447,31.548c-7.979,0-14.471-6.491-14.471-14.47s6.491-14.47,14.471-14.47c7.979,0,14.47,6.491,14.47,14.47   S47.426,31.548,39.447,31.548z M39.447,3.608c-7.428,0-13.471,6.043-13.471,13.47s6.043,13.47,13.471,13.47   c7.427,0,13.47-6.043,13.47-13.47S46.874,3.608,39.447,3.608z"/>
	<path class="st4" d="M41.289,17.078l2.744-2.744c0.63-0.63,0.63-1.653,0-2.283c-0.631-0.631-1.653-0.631-2.283,0l-2.744,2.744   l-2.744-2.744c-0.631-0.631-1.653-0.631-2.283,0c-0.631,0.63-0.631,1.653,0,2.283l2.744,2.744l-2.744,2.744   c-0.631,0.63-0.631,1.653,0,2.283c0.631,0.631,1.653,0.631,2.283,0l2.744-2.744l2.744,2.744c0.631,0.631,1.653,0.631,2.283,0   c0.63-0.63,0.63-1.653,0-2.283L41.289,17.078z"/>
	<path class="st1" d="M35.12,23.079c-0.565,0-1.097-0.221-1.495-0.62c-0.399-0.398-0.62-0.93-0.62-1.495   c0-0.564,0.221-1.096,0.62-1.495l2.391-2.391l-2.391-2.391c-0.399-0.399-0.62-0.931-0.62-1.495c0-0.565,0.221-1.097,0.62-1.495   c0.797-0.798,2.191-0.799,2.99,0l2.391,2.391l2.391-2.391c0.824-0.824,2.166-0.824,2.99,0c0.399,0.398,0.62,0.93,0.62,1.495   c0,0.564-0.221,1.096-0.62,1.495l-2.391,2.391l2.391,2.391c0.399,0.399,0.62,0.931,0.62,1.495c0,0.565-0.221,1.097-0.62,1.495   c-0.824,0.824-2.166,0.824-2.99,0l-2.391-2.391l-2.391,2.391C36.216,22.858,35.685,23.079,35.12,23.079z M35.12,12.077   c-0.298,0-0.577,0.116-0.788,0.327s-0.327,0.49-0.327,0.788s0.116,0.577,0.327,0.788l2.744,2.744c0.195,0.195,0.195,0.512,0,0.707   l-2.744,2.744c-0.211,0.211-0.327,0.49-0.327,0.788s0.116,0.577,0.327,0.788c0.422,0.422,1.154,0.422,1.576,0l2.744-2.744   c0.195-0.195,0.512-0.195,0.707,0l2.744,2.744c0.436,0.434,1.141,0.434,1.576,0c0.211-0.211,0.327-0.49,0.327-0.788   s-0.116-0.577-0.327-0.788l-2.744-2.744c-0.195-0.195-0.195-0.512,0-0.707l2.744-2.744c0.211-0.211,0.327-0.49,0.327-0.788   s-0.116-0.577-0.327-0.788c-0.434-0.434-1.143-0.434-1.576,0l-2.744,2.744c-0.195,0.195-0.512,0.195-0.707,0l-2.744-2.744   C35.697,12.193,35.418,12.077,35.12,12.077z"/>
</g>
</svg>
