<?xml version="1.0" encoding="iso-8859-1"?>
<!-- Generator: Adobe Illustrator 22.0.1, SVG Export Plug-In . SVG Version: 6.00 Build 0)  -->
<svg xmlns="http://www.w3.org/2000/svg" xmlns:xlink="http://www.w3.org/1999/xlink" version="1.1" id="Layer_1" x="0px" y="0px" viewBox="0 0 64 64" style="enable-background:new 0 0 64 64;" xml:space="preserve" width="512" height="512">
<style type="text/css">
	.st0{fill:#52B8D9;}
	.st1{fill:#63312D;}
	.st2{fill:#82D9FF;}
	.st3{fill:#CAF4FF;}
	.st4{fill:#F8F3F3;}
	.st5{fill:#F9DD9D;}
	.st6{fill:#FFEECF;}
	.st7{fill:#F9A287;}
	.st8{fill:#FFC8BB;}
	.st9{fill:#DB785A;}
	.st10{fill:#D1D1D1;}
	.st11{fill:#BCBCBC;}
	.st12{fill:#EFC36A;}
	.st13{fill:#84DBFF;}
	.st14{fill:#E1DDDD;}
</style>
<g>
	<path class="st5" d="M50.005,40.104c-0.072-1.383-1.314-2.421-2.699-2.421l-6.337,0h-4.96c1.635-2.82,3.71-5.719,4.472-8.906   c0.319-1.334-0.141-2.775-1.289-3.525c-1.523-0.996-3.498-0.517-4.421,0.961l-0.46,0.737c-1.311,2.099-3.033,3.911-5.064,5.326   l-6.303,4.391v19.806l2.28,0.827c1.549,0.562,3.185,0.849,4.833,0.849h9.977l4.505,0c1.385,0,2.627-1.037,2.699-2.421   c0.077-1.475-1.096-2.696-2.555-2.696h0.769c1.385,0,2.627-1.037,2.699-2.421c0.077-1.475-1.096-2.696-2.555-2.696h0.769   c1.385,0,2.627-1.037,2.699-2.421c0.077-1.475-1.096-2.696-2.555-2.696h0.94C48.908,42.8,50.082,41.58,50.005,40.104z"/>
	<path class="st6" d="M24.481,38.205l6.303-4.391c2.031-1.415,3.753-3.227,5.064-5.326l0.46-0.737   c0.835-1.338,2.53-1.844,3.974-1.192c-0.232-0.52-0.592-0.98-1.09-1.305c-1.523-0.996-3.498-0.517-4.421,0.961l-0.46,0.737   c-1.31,2.099-3.033,3.911-5.064,5.326l-6.303,4.391v19.806l1.537,0.557V38.205z"/>
	<polygon class="st12" points="22.944,36.668 22.944,56.474 24.481,57.031 24.481,35.597  "/>
	<path class="st12" d="M53.463,40.242c0-1.413-1.145-2.558-2.558-2.558H47.45c1.413,0,2.558,1.145,2.558,2.558   S48.863,42.8,47.45,42.8h-0.348H46.51c1.413,0,2.558,1.145,2.558,2.558c0,1.413-1.145,2.558-2.558,2.558h-0.348h-0.566   c1.413,0,2.558,1.145,2.558,2.558c0,1.413-1.145,2.558-2.558,2.558h-0.348h-0.566c1.413,0,2.558,1.145,2.558,2.558   c0,1.413-1.145,2.558-2.558,2.558h3.455c1.413,0,2.558-1.145,2.558-2.558c0-1.413-1.145-2.558-2.558-2.558h0.914   c1.413,0,2.558-1.145,2.558-2.558c0-1.413-1.145-2.558-2.558-2.558h0.914c1.413,0,2.558-1.145,2.558-2.558   c0-1.413-1.145-2.558-2.558-2.558h0.94C52.318,42.8,53.463,41.655,53.463,40.242z"/>
	<path class="st1" d="M48.137,58.65h-3.454c-0.276,0-0.5-0.224-0.5-0.5s0.224-0.5,0.5-0.5c1.135,0,2.058-0.924,2.058-2.059   s-0.923-2.059-2.058-2.059c-0.276,0-0.5-0.224-0.5-0.5s0.224-0.5,0.5-0.5h0.914c1.135,0,2.058-0.924,2.058-2.059   s-0.923-2.058-2.058-2.058c-0.276,0-0.5-0.224-0.5-0.5s0.224-0.5,0.5-0.5h0.914c1.135,0,2.058-0.924,2.058-2.059   S47.646,43.3,46.511,43.3c-0.276,0-0.5-0.224-0.5-0.5s0.224-0.5,0.5-0.5h0.939c1.135,0,2.059-0.923,2.059-2.058   s-0.924-2.059-2.059-2.059c-0.276,0-0.5-0.224-0.5-0.5s0.224-0.5,0.5-0.5h3.454c1.687,0,3.059,1.372,3.059,3.059   c0,1.294-0.809,2.403-1.947,2.849c0.618,0.561,1.008,1.369,1.008,2.268c0,1.288-0.8,2.393-1.93,2.843   c0.623,0.56,1.016,1.372,1.016,2.273c0,1.288-0.8,2.393-1.93,2.843c0.623,0.561,1.016,1.372,1.016,2.274   C51.195,57.278,49.823,58.65,48.137,58.65z M46.942,57.65h1.194c1.135,0,2.059-0.924,2.059-2.059s-0.924-2.059-2.059-2.059   c-0.276,0-0.5-0.224-0.5-0.5s0.224-0.5,0.5-0.5h0.914c1.135,0,2.059-0.924,2.059-2.059s-0.924-2.058-2.059-2.058   c-0.276,0-0.5-0.224-0.5-0.5s0.224-0.5,0.5-0.5h0.914c1.135,0,2.059-0.924,2.059-2.059S51.1,43.3,49.965,43.3   c-0.276,0-0.5-0.224-0.5-0.5s0.224-0.5,0.5-0.5h0.939c1.135,0,2.059-0.923,2.059-2.058s-0.924-2.059-2.059-2.059H49.71   c0.496,0.544,0.799,1.267,0.799,2.059c0,1.294-0.809,2.403-1.948,2.849c0.619,0.561,1.008,1.369,1.008,2.268   c0,1.288-0.8,2.393-1.929,2.843c0.622,0.561,1.015,1.372,1.015,2.273c0,1.288-0.8,2.393-1.93,2.843   c0.623,0.561,1.016,1.372,1.016,2.274C47.74,56.384,47.437,57.106,46.942,57.65z"/>
	<path class="st1" d="M47.45,43.3h-3.803v-1h3.803c1.135,0,2.058-0.923,2.058-2.058s-0.923-2.059-2.058-2.059H36.008   c-0.179,0-0.344-0.096-0.434-0.25c-0.089-0.155-0.089-0.347,0.001-0.501c0.342-0.59,0.703-1.183,1.068-1.781   c1.398-2.298,2.846-4.673,3.398-7.199c0.273-1.246-0.382-2.513-1.557-3.013c-1.212-0.514-2.594-0.076-3.291,1.039l-0.46,0.737   c-1.354,2.17-3.105,4.011-5.202,5.472l-6.303,4.391l-0.572-0.82l6.303-4.391c1.986-1.384,3.644-3.127,4.927-5.181l0.46-0.737   c0.958-1.535,2.864-2.138,4.529-1.43c1.618,0.688,2.52,2.432,2.143,4.147c-0.589,2.688-2.079,5.137-3.521,7.504   c-0.206,0.34-0.412,0.677-0.613,1.013H47.45c1.686,0,3.058,1.372,3.058,3.059C50.508,41.928,49.136,43.3,47.45,43.3z"/>
	<path class="st1" d="M46.511,48.417h-3.803v-1h3.803c1.135,0,2.058-0.924,2.058-2.059S47.646,43.3,46.511,43.3h-3.803v-1h3.803   c1.686,0,3.058,1.372,3.058,3.059S48.196,48.417,46.511,48.417z"/>
	<path class="st1" d="M45.597,53.533h-3.803v-1h3.803c1.135,0,2.058-0.924,2.058-2.059s-0.923-2.058-2.058-2.058h-3.803v-1h3.803   c1.686,0,3.058,1.372,3.058,3.058C48.654,52.161,47.282,53.533,45.597,53.533z"/>
	<path class="st1" d="M44.683,58.65h-14.81c-1.589,0-3.152-0.274-4.648-0.817l-2.452-0.89l0.342-0.939l2.452,0.89   c1.385,0.502,2.834,0.757,4.307,0.757h14.81c1.135,0,2.058-0.924,2.058-2.059s-0.923-2.059-2.058-2.059H40.88v-1h3.803   c1.686,0,3.058,1.372,3.058,3.059S46.368,58.65,44.683,58.65z"/>
	<rect x="14.209" y="36.16" class="st7" width="8.735" height="21.533"/>
	<polygon class="st8" points="16.209,38.16 22.944,38.16 22.944,36.16 14.209,36.16 14.209,57.693 16.209,57.693  "/>
	<path class="st1" d="M22.943,58.193h-8.734c-0.276,0-0.5-0.224-0.5-0.5V36.16c0-0.276,0.224-0.5,0.5-0.5h8.734   c0.276,0,0.5,0.224,0.5,0.5v21.533C23.443,57.97,23.22,58.193,22.943,58.193z M14.709,57.193h7.734V36.66h-7.734V57.193z"/>
	<rect x="17.395" y="38.915" class="st4" width="2.362" height="2.362"/>
	<rect x="46.893" y="42.3" class="st1" width="3.072" height="1"/>
	<rect x="46.893" y="47.417" class="st1" width="3.072" height="1"/>
	<rect x="46.122" y="52.533" class="st1" width="2.74" height="1"/>
	<rect x="9.063" y="37.312" class="st7" width="5.146" height="19.228"/>
	<rect x="9.063" y="37.312" class="st8" width="5.146" height="1.875"/>
	<path class="st1" d="M14.209,57.04H9.062v-1h4.646V37.813H9.062v-1h5.146c0.276,0,0.5,0.224,0.5,0.5V56.54   C14.709,56.816,14.485,57.04,14.209,57.04z"/>
	<rect x="41.794" y="24.98" class="st14" width="4" height="12.704"/>
	<path class="st1" d="M45.794,38.184h-4c-0.276,0-0.5-0.224-0.5-0.5V24.979c0-0.276,0.224-0.5,0.5-0.5h4c0.276,0,0.5,0.224,0.5,0.5   v12.704C46.294,37.96,46.07,38.184,45.794,38.184z M42.294,37.184h3V25.479h-3V37.184z"/>
	<rect x="36.008" y="24.98" class="st4" width="5.786" height="12.704"/>
	<path class="st1" d="M41.794,38.184h-5.786c-0.276,0-0.5-0.224-0.5-0.5V24.979c0-0.276,0.224-0.5,0.5-0.5h5.786   c0.276,0,0.5,0.224,0.5,0.5v12.704C42.294,37.96,42.07,38.184,41.794,38.184z M36.508,37.184h4.786V25.479h-4.786V37.184z"/>
	<rect x="41.794" y="58.15" class="st14" width="4" height="2.742"/>
	<path class="st1" d="M45.794,61.392h-4c-0.276,0-0.5-0.224-0.5-0.5V58.15c0-0.276,0.224-0.5,0.5-0.5h4c0.276,0,0.5,0.224,0.5,0.5   v2.741C46.294,61.168,46.07,61.392,45.794,61.392z M42.294,60.392h3V58.65h-3V60.392z"/>
	<rect x="36.008" y="58.15" class="st4" width="5.786" height="2.742"/>
	<path class="st1" d="M41.794,61.392h-5.786c-0.276,0-0.5-0.224-0.5-0.5V58.15c0-0.276,0.224-0.5,0.5-0.5h5.786   c0.276,0,0.5,0.224,0.5,0.5v2.741C42.294,61.168,42.07,61.392,41.794,61.392z M36.508,60.392h4.786V58.65h-4.786V60.392z"/>
	<path class="st0" d="M42.901,31.048c7.715,0,13.97-6.255,13.97-13.97s-6.254-13.97-13.97-13.97h-4v27.94H42.901z"/>
	<path class="st1" d="M42.901,31.548h-4c-0.276,0-0.5-0.224-0.5-0.5V3.108c0-0.276,0.224-0.5,0.5-0.5h4   c7.979,0,14.47,6.491,14.47,14.47S50.88,31.548,42.901,31.548z M39.401,30.548h3.5c7.427,0,13.47-6.043,13.47-13.47   s-6.043-13.47-13.47-13.47h-3.5V30.548z"/>
	<circle class="st13" cx="38.901" cy="17.078" r="13.97"/>
	<path class="st3" d="M26.931,17.078c0-7.378,5.723-13.405,12.97-13.919c-0.332-0.024-0.662-0.051-1-0.051   c-7.715,0-13.97,6.255-13.97,13.97c0,7.715,6.254,13.97,13.97,13.97c0.338,0,0.668-0.027,1-0.051   C32.654,30.483,26.931,24.456,26.931,17.078z"/>
	<path class="st1" d="M38.901,31.548c-7.979,0-14.47-6.491-14.47-14.47s6.491-14.47,14.47-14.47s14.47,6.491,14.47,14.47   S46.88,31.548,38.901,31.548z M38.901,3.608c-7.427,0-13.47,6.043-13.47,13.47s6.043,13.47,13.47,13.47s13.47-6.043,13.47-13.47   S46.328,3.608,38.901,3.608z"/>
	<path class="st4" d="M36.965,23.052c-0.419,0-0.839-0.156-1.165-0.467l-3.971-3.791c-0.674-0.643-0.699-1.711-0.055-2.385l0,0   c0.643-0.674,1.711-0.699,2.385-0.055l2.8,2.673l6.583-6.351c0.671-0.647,1.739-0.628,2.386,0.043l0,0   c0.647,0.671,0.628,1.739-0.043,2.386l-7.749,7.475C37.809,22.894,37.388,23.052,36.965,23.052z"/>
	<path class="st1" d="M36.965,23.552c-0.564,0-1.101-0.215-1.51-0.604l-3.972-3.792c-0.872-0.833-0.903-2.22-0.07-3.093   c0.833-0.872,2.221-0.902,3.092-0.07l2.452,2.34l6.238-6.017c0.867-0.838,2.256-0.812,3.092,0.055   c0.406,0.421,0.624,0.975,0.613,1.559s-0.248,1.13-0.669,1.535l-7.748,7.475C38.074,23.334,37.534,23.552,36.965,23.552z    M32.994,16.387c-0.313,0-0.625,0.123-0.858,0.367c-0.219,0.229-0.335,0.53-0.328,0.847c0.007,0.317,0.138,0.612,0.367,0.832   l3.971,3.791c0.445,0.424,1.201,0.422,1.645-0.005l7.747-7.475c0.229-0.221,0.357-0.517,0.363-0.833   c0.006-0.317-0.112-0.618-0.332-0.846c-0.456-0.472-1.207-0.484-1.68-0.03l-6.583,6.35c-0.192,0.187-0.499,0.188-0.691,0.002   l-2.8-2.672C33.584,16.496,33.289,16.387,32.994,16.387z"/>
</g>
</svg>
