<svg id="Layer_3" enable-background="new 0 0 64 64" height="512" viewBox="0 0 64 64" width="512" xmlns="http://www.w3.org/2000/svg"><path d="m55 30c3.866 0 7-3.134 7-7s-3.134-7-7-7c-.36 0-.71.036-1.056.088-.453-3.988-3.835-7.088-7.944-7.088-1.012 0-1.976.195-2.866.538-1.772-4.416-6.085-7.538-11.134-7.538s-9.362 3.122-11.134 7.538c-.89-.343-1.854-.538-2.866-.538-4.109 0-7.491 3.1-7.944 7.088-.346-.052-.696-.088-1.056-.088-3.866 0-7 3.134-7 7s3.134 7 7 7z" fill="#4d5d7a"/><g fill="#8892a0"><path d="m17 23c15.368 0 28.349-5.549 32.558-13.165-1.071-.534-2.279-.835-3.558-.835-1.012 0-1.976.195-2.866.538-1.772-4.416-6.085-7.538-11.134-7.538s-9.362 3.122-11.134 7.538c-.89-.343-1.854-.538-2.866-.538-4.109 0-7.491 3.1-7.944 7.088-.346-.052-.696-.088-1.056-.088-3.233 0-5.946 2.194-6.751 5.173 4.462 1.171 9.466 1.827 14.751 1.827z"/><path d="m32 48v.343c0 2.341.93 4.587 2.586 6.243.905.905 1.414 2.133 1.414 3.414 0 2.209-1.791 4-4 4s-4-1.791-4-4c0-1.281.509-2.509 1.414-3.414 1.656-1.656 2.586-3.901 2.586-6.243z"/><path d="m42 38v.343c0 2.341.93 4.587 2.586 6.243.905.905 1.414 2.133 1.414 3.414 0 2.209-1.791 4-4 4s-4-1.791-4-4c0-1.281.509-2.509 1.414-3.414 1.656-1.656 2.586-3.901 2.586-6.243z"/><path d="m54 45v.343c0 2.341.93 4.587 2.586 6.243.905.905 1.414 2.133 1.414 3.414 0 2.209-1.791 4-4 4s-4-1.791-4-4c0-1.281.509-2.509 1.414-3.414 1.656-1.656 2.586-3.901 2.586-6.243z"/><path d="m22 38v.343c0 2.341-.93 4.587-2.586 6.243-.905.905-1.414 2.133-1.414 3.414 0 2.209 1.791 4 4 4s4-1.791 4-4c0-1.281-.509-2.509-1.414-3.414-1.656-1.656-2.586-3.901-2.586-6.243z"/><path d="m10 45v.343c0 2.341-.93 4.587-2.586 6.243-.905.905-1.414 2.133-1.414 3.414 0 2.209 1.791 4 4 4s4-1.791 4-4c0-1.281-.509-2.509-1.414-3.414-1.656-1.656-2.586-3.901-2.586-6.243z"/></g><path d="m29 40 9-11h-5l3-5h-6l-4 8h5z" fill="#f5b953"/></svg>