<svg id="Layer_3" enable-background="new 0 0 64 64" height="512" viewBox="0 0 64 64" width="512" xmlns="http://www.w3.org/2000/svg"><path d="m28 62c2.209 0 4-1.791 4-4s-1.791-4-4-4c-.75 0-1.443.219-2.043.578-.217-2.561-2.34-4.578-4.957-4.578-2.761 0-5 2.239-5 5 0 .43.071.841.173 1.239-.36-.154-.756-.239-1.173-.239-1.657 0-3 1.343-3 3s1.343 3 3 3z" fill="#a1cdfb"/><g fill="#c7e2fc"><path d="m18 62c2.209 0 4-1.791 4-4s-1.791-4-4-4c-.75 0-1.443.219-2.043.578-.217-2.561-2.34-4.578-4.957-4.578-2.761 0-5 2.239-5 5 0 .43.071.841.173 1.239-.36-.154-.756-.239-1.173-.239-1.657 0-3 1.343-3 3s1.343 3 3 3z"/><path d="m18 14c2.209 0 4-1.791 4-4s-1.791-4-4-4c-.75 0-1.443.219-2.043.578-.217-2.561-2.34-4.578-4.957-4.578-2.761 0-5 2.239-5 5 0 .43.071.841.173 1.239-.36-.154-.756-.239-1.173-.239-1.657 0-3 1.343-3 3s1.343 3 3 3z"/><path d="m58 14c2.209 0 4-1.791 4-4s-1.791-4-4-4c-.75 0-1.443.219-2.043.578-.217-2.561-2.34-4.578-4.957-4.578-2.761 0-5 2.239-5 5 0 .43.071.841.173 1.239-.36-.154-.756-.239-1.173-.239-1.657 0-3 1.343-3 3s1.343 3 3 3z"/></g><path d="m55 42c3.866 0 7-3.134 7-7s-3.134-7-7-7c-.36 0-.71.036-1.056.088-.453-3.988-3.835-7.088-7.944-7.088-1.012 0-1.976.195-2.866.538-1.772-4.416-6.085-7.538-11.134-7.538s-9.362 3.122-11.134 7.538c-.89-.343-1.854-.538-2.866-.538-4.109 0-7.491 3.1-7.944 7.088-.346-.052-.696-.088-1.056-.088-3.866 0-7 3.134-7 7s3.134 7 7 7z" fill="#a1cdfb"/><path d="m20.5 37c14.003 0 25.794-6.345 29.376-14.99-1.149-.639-2.467-1.01-3.876-1.01-1.012 0-1.976.195-2.866.538-1.772-4.416-6.085-7.538-11.134-7.538s-9.362 3.122-11.134 7.538c-.89-.343-1.854-.538-2.866-.538-4.109 0-7.491 3.1-7.944 7.088-.346-.052-.696-.088-1.056-.088-3.154 0-5.819 2.086-6.694 4.953 5.079 2.542 11.375 4.047 18.194 4.047z" fill="#c7e2fc"/><path d="m38 50.031c-.912-1.225-2.359-2.031-4-2.031v2c1.654 0 3 1.346 3 3h-2v2h6v-2h-2c0-1.654 1.346-3 3-3v-2c-1.641 0-3.088.806-4 2.031z" fill="#4d5d7a"/><path d="m53 57v-2c-1.641 0-3.088.806-4 2.031-.912-1.225-2.359-2.031-4-2.031v2c1.654 0 3 1.346 3 3h-2v2h6v-2h-2c0-1.654 1.346-3 3-3z" fill="#4d5d7a"/></svg>