<svg id="Layer_3" enable-background="new 0 0 64 64" height="512" viewBox="0 0 64 64" width="512" xmlns="http://www.w3.org/2000/svg"><path d="m42 48c-.359 0-.707.041-1.045.113-.445-4.554-4.284-8.113-8.955-8.113s-8.51 3.559-8.955 8.113c-.338-.072-.686-.113-1.045-.113-2.761 0-5 2.239-5 5s2.239 5 5 5c1.717 0 3.231-.867 4.131-2.186 1.576 1.359 3.624 2.186 5.869 2.186s4.293-.827 5.869-2.186c.9 1.319 2.414 2.186 4.131 2.186 2.761 0 5-2.239 5-5s-2.239-5-5-5z" fill="#a1cdfb"/><path d="m27 24c-.359 0-.707.041-1.045.113-.445-4.554-4.284-8.113-8.955-8.113s-8.51 3.559-8.955 8.113c-.338-.072-.686-.113-1.045-.113-2.761 0-5 2.239-5 5s2.239 5 5 5c1.717 0 3.231-.867 4.131-2.186 1.576 1.359 3.624 2.186 5.869 2.186s4.293-.827 5.869-2.186c.9 1.319 2.414 2.186 4.131 2.186 2.761 0 5-2.239 5-5s-2.239-5-5-5z" fill="#c7e2fc"/><path d="m27 52c-.359 0-.707.041-1.045.113-.445-4.554-4.284-8.113-8.955-8.113s-8.51 3.559-8.955 8.113c-.338-.072-.686-.113-1.045-.113-2.761 0-5 2.239-5 5s2.239 5 5 5c1.717 0 3.231-.867 4.131-2.186 1.576 1.359 3.624 2.186 5.869 2.186s4.293-.827 5.869-2.186c.9 1.319 2.414 2.186 4.131 2.186 2.761 0 5-2.239 5-5s-2.239-5-5-5z" fill="#c7e2fc"/><path d="m62 18-7 4 3 7-8-2-4 7-4-7-8 2 3-7-7-4 7-4-3-7 8 2 4-7 4 7 8-2-3 7z" fill="#e39854"/><circle cx="46" cy="18" fill="#f5b953" r="7"/></svg>