<svg id="Layer_3" enable-background="new 0 0 64 64" height="512" viewBox="0 0 64 64" width="512" xmlns="http://www.w3.org/2000/svg"><circle cx="32" cy="18" fill="#c16b3f" r="9"/><path d="m39 14c0-.647-.071-1.277-.201-1.886-1.651-1.904-4.081-3.114-6.799-3.114-4.971 0-9 4.029-9 9 0 .647.072 1.277.201 1.886 1.651 1.904 4.081 3.114 6.799 3.114 4.971 0 9-4.029 9-9z" fill="#e39854"/><path d="m37 56c2.761 0 5-2.239 5-5s-2.239-5-5-5c-.903 0-1.738.258-2.469.676.298-.837.469-1.736.469-2.676 0-4.418-3.582-8-8-8-3.664 0-6.746 2.466-7.693 5.828-1.091-1.126-2.616-1.828-4.307-1.828-3.314 0-6 2.686-6 6 0 .147.012.29.022.434-.619-.275-1.301-.434-2.022-.434-2.761 0-5 2.239-5 5s2.239 5 5 5z" fill="#a1cdfb"/><path d="m57 62c2.761 0 5-2.239 5-5s-2.239-5-5-5c-.903 0-1.738.258-2.469.676.298-.837.469-1.736.469-2.676 0-4.418-3.582-8-8-8-3.664 0-6.746 2.466-7.693 5.828-1.091-1.126-2.616-1.828-4.307-1.828-3.314 0-6 2.686-6 6 0 .147.012.29.022.434-.619-.275-1.301-.434-2.022-.434-2.761 0-5 2.239-5 5s2.239 5 5 5z" fill="#c7e2fc"/><g fill="#e39854"><path d="m31 2h2v4h-2z"/><path d="m31 30h2v4h-2z"/><path d="m16 17h4v2h-4z"/><path d="m44 17h4v2h-4z"/><path d="m20.5 5.379h2v4.243h-2z" transform="matrix(.707 -.707 .707 .707 .994 17.4)"/><path d="m41.5 26.379h2v4.243h-2z" transform="matrix(.707 -.707 .707 .707 -7.705 38.4)"/><path d="m40.379 6.5h4.243v2h-4.243z" transform="matrix(.707 -.707 .707 .707 7.145 32.249)"/><path d="m19.379 27.5h4.243v2h-4.243z" transform="matrix(.707 -.707 .707 .707 -13.855 23.55)"/></g></svg>