<svg id="Layer_3" enable-background="new 0 0 64 64" height="512" viewBox="0 0 64 64" width="512" xmlns="http://www.w3.org/2000/svg"><path d="m43 34h9c5.523 0 10-4.477 10-10s-4.477-10-10-10c-1.831 0-3.542.5-5.018 1.36.003-.121.018-.239.018-.36 0-7.18-5.82-13-13-13-6.238 0-11.445 4.396-12.705 10.258-1.241-.792-2.712-1.258-4.295-1.258-4.418 0-8 3.582-8 8 0 .341.028.674.07 1.004-.024-.001-.047-.004-.07-.004-3.866 0-7 3.134-7 7s3.134 7 7 7h13" fill="#4d5d7a"/><path d="m22.5 28c13.46 0 24.733-5.895 27.719-13.82-1.158.212-2.253.607-3.237 1.179.003-.12.018-.238.018-.359 0-7.18-5.82-13-13-13-6.238 0-11.445 4.396-12.705 10.258-1.241-.792-2.712-1.258-4.295-1.258-4.418 0-8 3.582-8 8 0 .341.028.674.07 1.004-.024-.001-.047-.004-.07-.004-2.463 0-4.625 1.275-5.872 3.198 5.085 2.978 11.89 4.802 19.372 4.802z" fill="#8892a0"/><g fill="#f5b953"><path d="m27 49 13-15h-7l5-9h-9l-5 12h5z"/><path d="m53 62 9-11h-5l3-5h-6l-4 8h5z"/><path d="m5 62 9-11h-5l3-5h-6l-4 8h5z"/></g></svg>